<svg xmlns="http://www.w3.org/2000/svg" width="41.027" height="29.013" viewBox="0 0 41.027 29.013">
  <path id="cap" d="M40.931,84.7l-20.12-9.619a.43.43,0,0,0-.345,0L.347,84.7a.4.4,0,0,0,0,.721L5.726,88v6.3a1.893,1.893,0,0,0-.858,3.214,2.624,2.624,0,0,0-1.387,2.3v3.848a.423.423,0,0,0,.425.4H8.339a.418.418,0,0,0,.425-.4V99.815a2.624,2.624,0,0,0-1.387-2.3A1.888,1.888,0,0,0,6.52,94.3V88.384l-.281-.136L5.71,88v-.256a.4.4,0,0,1,.329-.393q7.25-1.335,14.508-2.685l.144.786L6.512,88.072v.3l3.447,1.651v9.779c0,1.8,2.252,2.757,3.671,3.238a21.744,21.744,0,0,0,6.99,1.01,21.712,21.712,0,0,0,6.99-1.01c1.411-.481,3.671-1.435,3.671-3.238V90.035l9.635-4.6A.406.406,0,0,0,40.931,84.7ZM30.495,95.967c0,1.571-2.589,2.341-3.743,2.677a21.855,21.855,0,0,1-6.116.778,22.583,22.583,0,0,1-5.908-.713c-1.2-.337-3.952-1.106-3.952-2.741V90.412l9.683,4.633a.374.374,0,0,0,.345,0l9.691-4.633Z" transform="translate(-0.125 -75.05)" fill="#3b65f5"/>
</svg>
