<svg xmlns="http://www.w3.org/2000/svg" width="29.58" height="29.54" viewBox="0 0 29.58 29.54">
  <path id="Path_5" data-name="Path 5" d="M24.167,12.339H9.4a1.477,1.477,0,1,0,0,2.954H24.167a1.477,1.477,0,0,0,0-2.954ZM18.26,18.246H9.4a1.477,1.477,0,0,0,0,2.954H18.26a1.477,1.477,0,0,0,0-2.954ZM16.783,2A14.769,14.769,0,0,0,2.013,16.769a14.607,14.607,0,0,0,3.338,9.349L2.4,29.072A1.44,1.44,0,0,0,3.49,31.539H16.783A14.769,14.769,0,0,0,16.783,2Zm0,26.585H7.05l1.374-1.374a1.477,1.477,0,0,0,0-2.082,11.815,11.815,0,1,1,8.359,3.456Z" transform="translate(-1.972 -2)" fill="#313131"/>
</svg>
