<svg xmlns="http://www.w3.org/2000/svg" width="27.091" height="28.596" viewBox="0 0 27.091 28.596">
  <g id="events" transform="translate(-6.905 -4.787)">
    <path id="Path_20246" data-name="Path 20246" d="M36.475,16.938H20.521a1.486,1.486,0,0,0-1.053.451l-2.784,2.784a.727.727,0,0,0,0,1.054l2.784,2.784a1.486,1.486,0,0,0,1.053.451H36.475a.711.711,0,0,0,.752-.752V17.69A.711.711,0,0,0,36.475,16.938ZM11.641,33.365v.881h1.505v-.881a2.265,2.265,0,0,1-1.505,0Zm0-10.536v6.278a2.265,2.265,0,0,1,1.505,0V22.829a2.26,2.26,0,0,1-1.505,0ZM13.146,8.037V7.155H11.641v.882a2.265,2.265,0,0,1,1.505,0Zm-.752,4.386a2.253,2.253,0,0,1-.753-.129v6.278a2.26,2.26,0,0,1,1.505,0V12.294A2.245,2.245,0,0,1,12.394,12.423Z" transform="translate(-3.231 -1.616)" fill="#3b65f5"/>
    <path id="Path_20247" data-name="Path 20247" d="M9.915,10.678a2.26,2.26,0,1,0-.752.129A2.258,2.258,0,0,0,9.915,10.678ZM8.41,16.957a2.26,2.26,0,1,0,.753-.129A2.258,2.258,0,0,0,8.41,16.957Zm0,10.535a2.265,2.265,0,1,0,.753-.129A2.258,2.258,0,0,0,8.41,27.492Zm18.813-1.634H17.29a1.486,1.486,0,0,0-1.053.451l-2.784,2.785a.727.727,0,0,0,0,1.053l2.784,2.785a1.486,1.486,0,0,0,1.053.452h9.934a.711.711,0,0,0,.752-.752v-6.02A.711.711,0,0,0,27.223,25.858Zm-10.987-14a1.485,1.485,0,0,0,1.053.452H27.976a.711.711,0,0,0,.752-.753V5.539a.711.711,0,0,0-.752-.752H17.29a1.486,1.486,0,0,0-1.053.452L13.452,8.023a.727.727,0,0,0,0,1.053Z" fill="#3b65f5"/>
  </g>
</svg>
