<svg xmlns="http://www.w3.org/2000/svg" width="31.914" height="29.013" viewBox="0 0 31.914 29.013">
  <path id="jobs" d="M30.288,8.352H25.21V6.176A2.176,2.176,0,0,0,23.034,4H12.88A2.176,2.176,0,0,0,10.7,6.176V8.352H5.627A3.627,3.627,0,0,0,2,11.979v8.7a.725.725,0,0,0,.725.725h.725v7.979a3.627,3.627,0,0,0,3.627,3.627h21.76a3.627,3.627,0,0,0,3.627-3.627V21.408h.725a.725.725,0,0,0,.725-.725v-8.7A3.627,3.627,0,0,0,30.288,8.352ZM12.155,6.176a.725.725,0,0,1,.725-.725H23.034a.725.725,0,0,1,.725.725V8.352H12.155ZM32.464,19.957H23.034v1.451h7.979v7.979a2.176,2.176,0,0,1-2.176,2.176H7.077A2.176,2.176,0,0,1,4.9,29.386V21.408H12.88V19.957H3.451V11.979A2.176,2.176,0,0,1,5.627,9.8H30.288a2.176,2.176,0,0,1,2.176,2.176ZM19.408,16.331h-2.9a2.176,2.176,0,0,0-2.176,2.176v4.352a2.176,2.176,0,0,0,2.176,2.176h2.9a2.176,2.176,0,0,0,2.176-2.176V18.506A2.176,2.176,0,0,0,19.408,16.331Zm.725,6.528a.725.725,0,0,1-.725.725h-2.9a.725.725,0,0,1-.725-.725V18.506a.725.725,0,0,1,.725-.725h2.9a.725.725,0,0,1,.725.725Zm-2.9-2.9h1.451v1.451H17.232Z" transform="translate(-2 -4)" fill="#3b65f5"/>
</svg>
