<svg xmlns="http://www.w3.org/2000/svg" width="25.333" height="29.013" viewBox="0 0 25.333 29.013">
  <g id="location" transform="translate(-1.013 -1036.36)">
    <path id="path4926" d="M13.668,0A8.171,8.171,0,0,0,5.511,8.155a.906.906,0,0,0,.042.287,15.288,15.288,0,0,0,2.776,7.686c1.506,2.4,3.252,4.645,4.372,6.939a.906.906,0,0,0,1.621.018,81.889,81.889,0,0,1,4.6-6.939c1.584-2.4,2.935-4.985,2.935-7.976a.906.906,0,0,0-.06-.336A8.155,8.155,0,0,0,13.668,0Zm0,1.813a6.33,6.33,0,0,1,6.344,6.344.906.906,0,0,0,.018.195c-.054,2.371-1.148,4.566-2.623,6.8-1.247,1.887-2.656,3.835-3.873,5.859-1.155-2.016-2.485-3.96-3.668-5.842-1.439-2.289-2.514-4.542-2.514-7a.906.906,0,0,0-.014-.159A6.322,6.322,0,0,1,13.668,1.811Zm0,3.629a2.719,2.719,0,1,0,2.719,2.719A2.733,2.733,0,0,0,13.668,5.439Zm0,1.813a.906.906,0,1,1-.906.906A.893.893,0,0,1,13.668,7.252Zm7.413,9.474a.906.906,0,0,0-.326,1.753,6.909,6.909,0,0,1,3.47,2.574,2.155,2.155,0,0,1-.166,2.584c-1.313,1.878-5.5,3.541-10.285,3.561s-9.03-1.6-10.419-3.484a2.174,2.174,0,0,1-.262-2.588,6.629,6.629,0,0,1,3.363-2.592.906.906,0,1,0-.7-1.671,8.194,8.194,0,0,0-4.263,3.413,4.192,4.192,0,0,0,.4,4.514c2.051,2.782,6.727,4.242,11.888,4.22s9.793-1.518,11.761-4.333a4.18,4.18,0,0,0,.255-4.521,8.467,8.467,0,0,0-4.365-3.36A.906.906,0,0,0,21.081,16.726Z" transform="translate(0 1036.362)" fill="#40b648"/>
  </g>
</svg>
