<svg xmlns="http://www.w3.org/2000/svg" width="34.815" height="29.013" viewBox="0 0 34.815 29.013">
  <path id="media" d="M1.451,7.8A1.455,1.455,0,0,0,0,9.253v5.8H.015L0,28.112a2.91,2.91,0,0,0,2.9,2.9H27.562a1.451,1.451,0,1,0,0-2.9H4.352A1.455,1.455,0,0,1,2.9,26.661V9.253A1.455,1.455,0,0,0,1.451,7.8ZM31.914,4.9H20.309L18.264,2.856A2.91,2.91,0,0,0,16.2,2H8.7A2.9,2.9,0,0,0,5.817,4.9L5.8,22.309a2.91,2.91,0,0,0,2.9,2.9h23.21a2.91,2.91,0,0,0,2.9-2.9V7.8A2.91,2.91,0,0,0,31.914,4.9ZM11.025,19.7l5.092-6.789a.737.737,0,0,1,1.161-.015l4.5,5.788,3.046-3.67a.725.725,0,0,1,1.132.015l3.612,4.642A.726.726,0,0,1,29,20.844H11.605a.713.713,0,0,1-.58-1.146Z" transform="translate(0 -2)" fill="#f55"/>
</svg>
