<svg xmlns="http://www.w3.org/2000/svg" width="25.075" height="29.5" viewBox="0 0 25.075 29.5">
  <path id="Path_4" data-name="Path 4" d="M14.254,25.2a5.121,5.121,0,0,1,2.111.525h.04a1.305,1.305,0,0,1,.211,1.809A4.546,4.546,0,0,1,13.2,29.462,5.435,5.435,0,0,1,9.24,28.373,2.4,2.4,0,0,1,8.21,26.656c0-.734.686-1.075,1.32-1.219a11,11,0,0,1,2.256-.236h2.468ZM12.592,0c4.566,0,9.277,3.3,9.765,8.09.079.983,0,2.006.079,3a7.416,7.416,0,0,0,1.729,3.461,5.394,5.394,0,0,1,.911,2.714h0v.3a5.394,5.394,0,0,1-1.32,3.566A6.614,6.614,0,0,1,19.6,23.194a55.627,55.627,0,0,1-14.159,0A6.614,6.614,0,0,1,1.23,21.136,5.315,5.315,0,0,1,0,17.569v-.3a5.522,5.522,0,0,1,.884-2.714,7.561,7.561,0,0,0,1.755-3.461c.079-1,0-2.006.079-3C3.222,3.3,7.841,0,12.46,0h.132Z" fill="#313131"/>
</svg>
