<svg xmlns="http://www.w3.org/2000/svg" width="27.013" height="27.013" viewBox="0 0 27.013 27.013">
  <g id="question" transform="translate(-2 -2)">
    <path id="Path_20244" data-name="Path 20244" d="M15.507,2A13.507,13.507,0,1,0,29.013,15.507,13.546,13.546,0,0,0,15.507,2Zm0,24.312A10.805,10.805,0,1,1,26.312,15.507,10.837,10.837,0,0,1,15.507,26.312Z" fill="#3b65f5"/>
    <circle id="Ellipse_2724" data-name="Ellipse 2724" cx="1.5" cy="1.5" r="1.5" transform="translate(14 21)" fill="#3b65f5"/>
    <path id="Path_20245" data-name="Path 20245" d="M15.4,6H11.351A1.276,1.276,0,0,0,10,7.351,1.276,1.276,0,0,0,11.351,8.7H15.4a1.276,1.276,0,0,1,1.351,1.351V11.4A1.276,1.276,0,0,1,15.4,12.753a3.98,3.98,0,0,0-4.052,4.052A1.276,1.276,0,0,0,12.7,18.156a1.276,1.276,0,0,0,1.351-1.351A1.276,1.276,0,0,1,15.4,15.455,3.98,3.98,0,0,0,19.455,11.4V10.052A3.98,3.98,0,0,0,15.4,6Z" transform="translate(2.805 1.403)" fill="#3b65f5"/>
  </g>
</svg>
