<svg xmlns="http://www.w3.org/2000/svg" width="29.008" height="29.013" viewBox="0 0 29.008 29.013">
  <g id="tag" transform="translate(-0.248 -0.25)">
    <path id="Path_20250" data-name="Path 20250" d="M15.824,29.262a4.482,4.482,0,0,1-3.17-1.3L1.545,16.859A4.533,4.533,0,0,1,.258,13.385L.737,5.649A5.3,5.3,0,0,1,5.649.738L13.385.258a4.575,4.575,0,0,1,3.473,1.287L27.967,12.654a4.869,4.869,0,0,1-.261,6.862h0L19.49,27.707A5.18,5.18,0,0,1,15.824,29.262ZM13.688,2.352h-.193l-7.745.471A3.221,3.221,0,0,0,2.806,5.767L2.36,13.495a2.4,2.4,0,0,0,.673,1.884l11.084,11.1a2.439,2.439,0,0,0,1.842.681A3.1,3.1,0,0,0,18,26.218L26.226,18a2.775,2.775,0,0,0,.252-3.885L15.4,3.033a2.363,2.363,0,0,0-1.707-.681Zm13.262,16.4Z" transform="translate(0)" fill="#3b65f5"/>
    <path id="Path_20251" data-name="Path 20251" d="M10.8,14.378a3.567,3.567,0,1,1,.008,0Zm0-5.046a1.472,1.472,0,0,0-1.043,2.523,1.514,1.514,0,0,0,2.086,0,1.48,1.48,0,0,0,0-2.086h0A1.463,1.463,0,0,0,10.8,9.332Z" transform="translate(-1.11 -1.11)" fill="#3b65f5"/>
  </g>
</svg>
