<svg xmlns="http://www.w3.org/2000/svg" width="28.597" height="28.596" viewBox="0 0 28.597 28.596">
  <path id="video" d="M17.1,8A9.093,9.093,0,0,0,8,17.1V27.5a9.093,9.093,0,0,0,9.1,9.1H27.5a9.093,9.093,0,0,0,9.1-9.1V17.1A9.093,9.093,0,0,0,27.5,8Zm0,1.3h3.552l2.167,3.25L20.651,15.8H16.364L18.29,12.91a.65.65,0,0,0,0-.721l-1.9-2.854c.235-.021.471-.036.711-.036Zm5.114,0H26.5l2.167,3.25L26.5,15.8H22.213l1.926-2.889a.65.65,0,0,0,0-.721Zm5.868.029a7.749,7.749,0,0,1,7.1,6.47H28.063l1.926-2.889a.65.65,0,0,0,0-.721l-1.907-2.86ZM15,9.592l1.973,2.958L14.8,15.8H9.415A7.745,7.745,0,0,1,15,9.592ZM9.3,17.1h26V27.5a7.768,7.768,0,0,1-7.8,7.8H17.1a7.768,7.768,0,0,1-7.8-7.8V17.1Z" transform="translate(-8 -8)" fill="#286ff9"/>
</svg>
